HIERARCHY
ROOT Hips
{
	OFFSET 0.00000 0.00000 0.00000
	CHANNELS 6 Xposition Yposition Zposition Yrotation Zrotation Xrotation 
	JOINT Lumbar
	{
		OFFSET 0 0 0
		CHANNELS 3 Zrotation Xrotation Yrotation
		JOINT Neck
		{
			OFFSET 0.00 0.2701 0.00
			CHANNELS 3 Zrotation Xrotation Yrotation
			End Site
			{
				OFFSET 0.00 0.1379 0.00
			}
		}
		JOINT RightShoulder
		{
			OFFSET 0.0119 0.2289 0.1181
			CHANNELS 3 Zrotation Xrotation Yrotation
			JOINT RightElbow
			{
				OFFSET 0.00 -0.1475 0.00
				CHANNELS 2 Zrotation Yrotation
				JOINT RightWrist
				{
					OFFSET 0.00 -0.1605 0.00
					CHANNELS 2 Zrotation Xrotation
					End Site
					{
						OFFSET 0.0040 -0.1068 0.0006
					}
				}
			}
		}
		JOINT LeftShoulder
		{
			OFFSET 0.0119 0.2289 -0.1181
			CHANNELS 3 Zrotation Xrotation Yrotation
			JOINT LeftElbow
			{
				OFFSET 0.00 -0.1475 0.00
				CHANNELS 2 Zrotation Yrotation
				JOINT LeftWrist
				{
					OFFSET 0.00 -0.1605 0.00
					CHANNELS 2 Zrotation Xrotation
					End Site
					{
						OFFSET 0.0040 -0.1068 -0.0006
					}
				}
			}
		}
	}
	JOINT RightHip
	{
		OFFSET 0.0316 -0.0424 0.0458
		CHANNELS 3 Zrotation Xrotation Yrotation
		JOINT RightKnee
		{
			OFFSET 0.00 -0.2438 0.00
			CHANNELS 1 Zrotation
			JOINT RightAnkle
			{
				OFFSET 0.00 -0.2449 0.00
				CHANNELS 3 Zrotation Xrotation Yrotation
				End Site
				{
					OFFSET 0.1237 -0.0542 0.0051
				}
			}
		}
	}
	JOINT LeftHip
	{
		OFFSET 0.0316 -0.0424 -0.0458
		CHANNELS 3 Zrotation Xrotation Yrotation
		JOINT LeftKnee
		{
			OFFSET 0.00 -0.2438 0.00
			CHANNELS 1 Zrotation
			JOINT LeftAnkle
			{
				OFFSET 0.00 -0.2449 0.00
				CHANNELS 3 Zrotation Xrotation Yrotation
				End Site
				{
					OFFSET 0.1237 -0.0542 -0.0051
				}
			}
		}
	}
}
MOTION
Frames: 19
Frame Time: 0.02
0.00135 5e-05 3e-05 175.81899 -44.26375 -0.44725 53.70548 1.47151 2.72632 -2.44951 -9.36787 -0.89906 134.17162 -79.84595 -82.48674 16.29433 76.38557 -4.14257 -8.22302 133.10197 72.56078 87.14147 7.51298 -92.78212 -9.66552 7.4357 50.55557 -1.36317 -15.85833 -20.23506 -7.14827 -3.19724 -3.8121 53.7867 4.17207 13.73379 -23.96982 -8.06703 2.80523 3.67314
0.00114 4e-05 5e-05 175.79172 -44.25659 -0.4407 53.77702 1.47091 2.70681 -2.49371 -9.36971 -0.90031 134.45078 -79.86116 -82.16301 16.34307 76.39488 -4.11856 -8.24627 134.1972 72.60612 87.14029 7.6826 -91.93063 -9.10654 7.61557 50.52372 -1.34435 -15.69747 -20.20774 -7.1569 -3.20179 -3.81569 53.75685 4.14351 13.64469 -23.97046 -8.06649 2.81742 3.67986
0.00092 2e-05 6e-05 175.76452 -44.24941 -0.43415 53.84839 1.47034 2.68737 -2.53788 -9.37153 -0.90156 134.73008 -79.87637 -81.8391 16.39163 76.40419 -4.09466 -8.26943 135.28996 72.65136 87.13909 7.85174 -91.08179 -8.54895 7.79491 50.49189 -1.32559 -15.53683 -20.18047 -7.16555 -3.20636 -3.81928 53.72699 4.11506 13.55615 -23.9711 -8.06593 2.82956 3.68654
0.00071 1e-05 8e-05 175.73732 -44.24227 -0.42762 53.91972 1.46975 2.66792 -2.58196 -9.37337 -0.9028 135.00858 -79.89154 -81.51613 16.44022 76.41348 -4.07073 -8.2926 136.382 72.69657 87.1379 8.02084 -90.23293 -7.99162 7.97424 50.46012 -1.30683 -15.37641 -20.15323 -7.17417 -3.2109 -3.82286 53.69721 4.0866 13.46741 -23.97173 -8.06538 2.8417 3.69324
0.00049 -1e-05 0.0001 175.71006 -44.23516 -0.42111 53.9912 1.46912 2.6484 -2.62602 -9.37524 -0.90405 135.28644 -79.90672 -81.19391 16.48899 76.42274 -4.04668 -8.31586 137.47609 72.74186 87.13674 8.19041 -89.38141 -7.43305 8.15408 50.42837 -1.28803 -15.21588 -20.12595 -7.18276 -3.21541 -3.82643 53.6675 4.05801 13.37792 -23.97236 -8.06487 2.85391 3.69997
0.00028 -3e-05 0.00011 175.68299 -44.22783 -0.41449 54.06232 1.46866 2.62911 -2.67045 -9.37695 -0.9053 135.5687 -79.92197 -80.86652 16.53711 76.43217 -4.02311 -8.33881 138.56591 72.78702 87.13546 8.35863 -88.53823 -6.87759 8.33234 50.39635 -1.26933 -15.05502 -20.09871 -7.19152 -3.22012 -3.83009 53.63731 4.02984 13.29132 -23.97303 -8.06421 2.8659 3.70655
6e-05 -4e-05 0.00013 175.65556 -44.22095 -0.40808 54.13408 1.46786 2.60938 -2.71406 -9.379 -0.90654 135.8421 -79.93706 -80.54958 16.58649 76.44126 -3.99861 -8.36237 139.66334 72.83238 87.13442 8.52939 -87.67926 -6.31641 8.51362 50.36493 -1.25045 -14.89498 -20.07142 -7.19995 -3.22441 -3.83356 53.6081 4.0009 13.19925 -23.97362 -8.06383 2.8783 3.71342
-0.00015 -6e-05 0.00014 175.62847 -44.21366 -0.40148 54.20528 1.46738 2.59006 -2.75847 -9.3807 -0.90779 136.12312 -79.95228 -80.22358 16.63472 76.45065 -3.97491 -8.38534 140.75336 72.87755 87.13317 8.6978 -86.83474 -5.76062 8.69206 50.33293 -1.23174 -14.73423 -20.04416 -7.20867 -3.22908 -3.8372 53.578 3.97258 13.11178 -23.97428 -8.06321 2.89036 3.72005
-0.00037 -7e-05 0.00016 175.60176 -44.20583 -0.39465 54.27569 1.46728 2.57125 -2.80373 -9.38212 -0.90906 136.41592 -79.96773 -79.88388 16.68152 76.46045 -3.9524 -8.40771 141.83649 72.92254 87.13161 8.86344 -86.00798 -5.21067 8.86729 50.30028 -1.2132 -14.57229 -20.01701 -7.21779 -3.23425 -3.84107 53.54674 3.94539 13.03172 -23.97502 -8.06223 2.90184 3.72629
-0.00057 -9e-05 0.00017 175.57275 -44.201 -0.38915 54.35036 1.46497 2.5495 -2.84372 -9.3856 -0.91024 136.64836 -79.98208 -79.61507 16.73644 76.46804 -3.9237 -8.43391 142.96581 72.96871 87.13166 9.04534 -85.0793 -4.62484 9.06181 50.27152 -1.19359 -14.41621 -19.98943 -7.22474 -3.23668 -3.84368 53.52193 3.9128 12.9144 -23.9753 -8.06313 2.91617 3.73447
-0.00081 -0.00011 0.0002 175.54867 -44.18992 -0.38085 54.41619 1.46732 2.53394 -2.89506 -9.38444 -0.9116 137.00331 -79.99863 -79.2019 16.7743 76.48019 -3.90765 -8.4518 143.99333 73.01229 87.12843 9.19268 -84.36554 -4.11626 9.21509 50.23448 -1.1763 -14.24847 -19.96263 -7.23618 -3.2448 -3.84891 53.48369 3.8909 12.8722 -23.97653 -8.06021 2.92478 3.73873
-0.00113 -0.00013 0.0003 175.53748 -44.16104 -0.36476 54.45641 1.4827 2.53582 -2.97602 -9.37284 -0.91341 137.73535 -80.02245 -78.34659 16.76401 76.50577 -3.93013 -8.44838 144.77454 73.04981 87.11517 9.24638 -84.24792 -3.80876 9.25812 50.17516 -1.16492 -14.0426 -19.93908 -7.26085 -3.26937 -3.8618 53.40655 3.90465 13.06783 -23.98077 -8.04531 2.91502 3.73065
-0.0015 -0.00015 0.00043 175.53133 -44.12602 -0.34589 54.48795 1.50273 2.54382 -3.06865 -9.35618 -0.91541 138.58107 -80.04837 -77.35554 16.73664 76.53582 -3.96469 -8.43618 145.44695 73.08463 87.09879 9.26509 -84.34487 -3.58077 9.25897 50.10744 -1.15599 -13.82632 -19.91612 -7.28984 -3.29948 -3.87723 53.31629 3.9281 13.33365 -23.98591 -8.02682 2.89993 3.71889
-0.00184 -0.00017 0.00054 175.52334 -44.09425 -0.32836 54.52438 1.52048 2.54871 -3.15696 -9.34035 -0.91735 139.35028 -80.07238 -76.45572 16.71821 76.56314 -3.99109 -8.42728 146.14822 73.11988 87.08456 9.2991 -84.33947 -3.32361 9.27748 50.04324 -1.14618 -13.61855 -19.89213 -7.31627 -3.32653 -3.89123 53.23337 3.9428 13.54582 -23.99037 -8.01098 2.88908 3.70989
-0.00218 -0.0002 0.00066 175.51357 -44.06052 -0.31049 54.55697 1.53895 2.55498 -3.24119 -9.33066 -0.91917 140.23185 -80.09994 -75.42798 16.69559 76.59316 -4.02836 -8.42202 146.93815 73.15811 87.06736 9.33585 -84.35508 -3.03756 9.30313 49.98024 -1.13523 -13.39403 -19.87127 -7.34529 -3.35596 -3.90646 53.14465 3.97531 13.84731 -23.99597 -7.99096 2.87082 3.69645
-0.00254 -0.00022 0.00077 175.50855 -44.02946 -0.29269 54.5953 1.557 2.55985 -3.33662 -9.30704 -0.92129 140.89729 -80.12122 -74.63817 16.67663 76.61892 -4.04638 -8.40618 147.51516 73.18997 87.05545 9.35826 -84.3776 -2.83012 9.30282 49.91283 -1.12742 -13.2029 -19.84415 -7.36987 -3.38167 -3.91967 53.06482 3.97372 13.98271 -23.99943 -7.97864 2.86641 3.69121
-0.00295 -0.00024 0.00089 175.51659 -44.00705 -0.27555 54.65335 1.57282 2.5593 -3.46106 -9.2453 -0.92419 140.9917 -80.11995 -74.50839 16.67808 76.63084 -4.00757 -8.37099 147.54498 73.20157 87.05924 9.35197 -84.36561 -2.82321 9.24904 49.83474 -1.12615 -13.09809 -19.79874 -7.38171 -3.39641 -3.92709 53.01356 3.86924 13.61345 -23.99644 -7.98994 2.90425 3.711
-0.00337 -0.00025 0.001 175.52901 -43.98757 -0.25858 54.71715 1.58798 2.55718 -3.59647 -9.16958 -0.92738 140.83871 -80.11358 -74.62856 16.68089 76.63949 -3.95176 -8.32398 147.35673 73.20807 87.06767 9.33164 -84.35193 -2.89199 9.16803 49.75265 -1.12825 -13.02864 -19.74725 -7.38881 -3.40709 -3.9323 52.97158 3.73121 13.07987 -23.99134 -8.00885 2.95572 3.73891
-0.00378 -0.00027 0.00112 175.53861 -43.96694 -0.24173 54.77719 1.6035 2.55573 -3.72591 -9.10124 -0.93044 140.78402 -80.11209 -74.65402 16.68132 76.64902 -3.9008 -8.27741 147.26541 73.21837 87.07472 9.31673 -84.34143 -2.92431 9.09573 49.67271 -1.1298 -12.9488 -19.69906 -7.39771 -3.4192 -3.93821 52.92484 3.61274 12.6406 -23.98743 -8.02331 2.99918 3.76212
